<svg width="137" height="125" viewBox="0 0 137 125" fill="none" xmlns="http://www.w3.org/2000/svg">
<path d="M124.35 56.27C124.35 49.38 116.24 43.27 103.77 39.54C106.77 26.87 105.46 16.79 99.49 13.38C98.0262 12.567 96.3743 12.1532 94.7 12.18C89.13 12.18 82.09 16.07 74.98 22.8C67.87 16.12 60.85 12.25 55.29 12.25C53.5898 12.2124 51.9109 12.6339 50.43 13.47C44.49 16.89 43.26 26.91 46.22 39.52C33.81 43.23 25.74 49.29 25.72 56.15C25.7 63.01 33.84 69.15 46.31 72.87C43.31 85.55 44.61 95.62 50.59 99.03C52.0484 99.8476 53.6984 100.262 55.37 100.23C60.95 100.23 67.99 96.34 75.1 89.61C82.2 96.29 89.22 100.16 94.79 100.16C96.4895 100.191 98.1668 99.7702 99.65 98.94C105.59 95.52 106.81 85.5 103.86 72.94C116.27 69.18 124.34 63.12 124.35 56.27ZM79.56 25.06C87.75 17.73 92.87 16.94 94.69 16.94C95.5341 16.9129 96.3699 17.1132 97.11 17.52C99.97 19.15 101.11 24.9 100.2 32.52C99.9669 34.466 99.6331 36.3986 99.2 38.31C95.0562 37.3468 90.8539 36.6554 86.62 36.24C84.0987 32.7019 81.346 29.3346 78.38 26.16C78.75 25.79 79.15 25.42 79.56 25.06ZM54.77 61.94C55.55 63.44 56.38 64.94 57.24 66.45C58.1 67.96 59 69.49 60 71C57.29 70.61 54.66 70.12 52.16 69.54C52.86 67 53.75 64.5 54.77 61.94ZM52 42.9C54.53 42.31 57.18 41.82 59.93 41.44C58.93 42.92 58.07 44.44 57.17 46.03C56.27 47.62 55.48 49.03 54.71 50.55C53.69 47.95 52.7867 45.4 52 42.9ZM57.21 56.24C58.45 53.62 59.8134 51 61.3 48.38C62.8 45.76 64.41 43.21 66.07 40.77C68.98 40.55 71.98 40.43 75.07 40.44C78.16 40.45 81.07 40.56 83.96 40.79C85.62 43.21 87.21 45.79 88.71 48.34C90.21 50.89 91.59 53.56 92.83 56.17C91.6 58.79 90.23 61.42 88.75 64.02C87.27 66.62 85.64 69.2 83.98 71.64C81.07 71.87 78.07 71.98 74.98 71.98C71.89 71.98 68.98 71.85 66.09 71.62C64.43 69.2 62.83 66.68 61.33 64.07C59.83 61.46 58.5 58.85 57.25 56.24H57.21ZM90.07 41.47C92.79 41.85 95.42 42.34 97.91 42.92C97.17 45.39 96.29 47.92 95.27 50.47C94.48 48.97 93.66 47.47 92.79 45.96C91.92 44.45 91 42.93 90.11 41.47H90.07ZM92.83 66.39C93.69 64.8767 94.51 63.3667 95.29 61.86C96.29 64.46 97.29 67.02 97.99 69.52C95.47 70.11 92.82 70.59 90.07 70.97C91.0367 69.49 91.97 67.9633 92.87 66.39H92.83ZM75 29.56C76.8 31.48 78.57 33.56 80.3 35.79C78.59 35.72 76.84 35.67 75.07 35.67C73.3 35.67 71.49 35.67 69.74 35.79C71.45 33.57 73.2 31.48 75 29.56ZM52.82 17.56C53.5787 17.1565 54.4315 16.9632 55.29 17C57.0917 17.0751 58.8585 17.5211 60.48 18.31C64.1447 20.0378 67.5184 22.3252 70.48 25.09L71.65 26.16C68.7143 29.3113 65.9884 32.6518 63.49 36.16C59.2332 36.5724 55.0077 37.2605 50.84 38.22C50.4 36.28 50.04 34.38 49.84 32.55C48.8 25 50 19.24 52.81 17.6L52.82 17.56ZM47.53 68.26C45.6511 67.6864 43.8021 67.0189 41.99 66.26C34.89 63.26 30.49 59.41 30.49 56.12C30.49 52.83 34.91 49 42 46.05C43.7798 45.3128 45.5954 44.6653 47.44 44.11C48.6901 48.253 50.2135 52.3085 52 56.25C50.2515 60.1523 48.7583 64.1641 47.53 68.26ZM70.53 87.36C62.34 94.69 57.22 95.47 55.39 95.47C54.5458 95.4981 53.7097 95.2977 52.97 94.89C50.11 93.26 48.97 87.51 49.88 79.89C50.1123 77.9472 50.4461 76.0179 50.88 74.11C55.025 75.0648 59.227 75.7529 63.46 76.17C65.9782 79.7104 68.7311 83.078 71.7 86.25L70.53 87.36ZM75.1 82.85C73.3 80.93 71.53 78.85 69.79 76.62C71.51 76.7 73.26 76.74 75.03 76.74C76.8 76.74 78.61 76.74 80.36 76.63C78.63 78.85 76.87 80.93 75.09 82.85H75.1ZM97.28 94.85C96.5213 95.2657 95.6647 95.4695 94.8 95.44C92.98 95.44 87.8 94.64 79.64 87.34L78.47 86.27C81.4024 83.1185 84.1249 79.778 86.62 76.27C90.8808 75.8634 95.1101 75.1752 99.28 74.21C99.72 76.15 100.07 78.05 100.28 79.88C101.27 87.42 100.12 93.18 97.27 94.81L97.28 94.85ZM108.08 66.41C106.37 67.11 104.56 67.76 102.64 68.34C101.385 64.1974 99.8583 60.1419 98.07 56.2C99.8266 52.3021 101.326 48.2936 102.56 44.2C104.439 44.7736 106.288 45.4411 108.1 46.2C115.19 49.2 119.6 53.05 119.59 56.34C119.58 59.63 115.17 63.42 108.07 66.37L108.08 66.41ZM75 65.39C76.8156 65.392 78.5911 64.8555 80.1018 63.8484C81.6126 62.8414 82.7908 61.409 83.4874 59.7323C84.184 58.0556 84.3678 56.21 84.0156 54.4289C83.6633 52.6478 82.7908 51.0111 81.5083 49.7258C80.2259 48.4406 78.5911 47.5645 76.8107 47.2084C75.0304 46.8522 73.1844 47.032 71.5062 47.725C69.828 48.418 68.393 49.593 67.3827 51.1016C66.3723 52.6101 65.832 54.3844 65.83 56.2C65.8274 57.4059 66.0626 58.6005 66.5223 59.7154C66.982 60.8302 67.657 61.8435 68.5088 62.6971C69.3605 63.5507 70.3723 64.228 71.4862 64.6901C72.6 65.1522 73.7941 65.39 75 65.39ZM14 0.880005V111.53H136.07V0.880005H14ZM131.3 106.77H18.78V5.65001H131.3V106.77ZM46.3 72.87C43.3 85.55 44.6 95.62 50.58 99.03C52.0384 99.8476 53.6884 100.262 55.36 100.23C60.94 100.23 67.98 96.34 75.09 89.61C82.19 96.29 89.21 100.16 94.78 100.16C96.4795 100.191 98.1568 99.7702 99.64 98.94C105.58 95.52 106.8 85.5 103.85 72.94C116.26 69.22 124.33 63.16 124.34 56.31C124.35 49.46 116.23 43.31 103.76 39.58C106.76 26.91 105.45 16.83 99.48 13.42C98.0162 12.607 96.3643 12.1932 94.69 12.22C89.12 12.22 82.08 16.11 74.97 22.84C67.86 16.16 60.84 12.29 55.28 12.29C53.5798 12.2524 51.9009 12.6739 50.42 13.51C44.48 16.93 43.25 26.95 46.21 39.56C33.8 43.27 25.73 49.33 25.71 56.19C25.69 63.05 33.84 69.13 46.31 72.87H46.3ZM70.51 87.36C62.32 94.69 57.2 95.47 55.37 95.47C54.5258 95.4981 53.6897 95.2977 52.95 94.89C50.09 93.26 48.95 87.51 49.86 79.89C50.0923 77.9472 50.4261 76.0179 50.86 74.11C55.005 75.0648 59.207 75.7529 63.44 76.17C65.9582 79.7104 68.7111 83.078 71.68 86.25L70.51 87.36ZM95.3 50.47C94.51 48.97 93.69 47.47 92.82 45.96C91.95 44.45 91.02 42.96 90.1 41.47C92.82 41.85 95.45 42.34 97.94 42.92C97.21 45.39 96.33 47.92 95.31 50.47H95.3ZM98.02 69.47C95.5 70.06 92.85 70.54 90.1 70.92C91.04 69.44 91.96 67.9133 92.86 66.34C93.76 64.7667 94.58 63.2567 95.32 61.81C96.37 64.46 97.28 67 98 69.52L98.02 69.47ZM92.81 56.12C91.58 58.74 90.21 61.37 88.73 63.97C87.25 66.57 85.62 69.15 83.96 71.59C81.05 71.82 78.05 71.93 74.96 71.93C71.87 71.93 68.96 71.8 66.07 71.57C64.41 69.15 62.81 66.63 61.31 64.02C59.81 61.41 58.44 58.8 57.19 56.19C58.43 53.57 59.7933 50.95 61.28 48.33C62.78 45.71 64.39 43.16 66.05 40.72C68.96 40.5 71.96 40.38 75.05 40.39C78.14 40.4 81.05 40.51 83.94 40.74C85.6 43.16 87.19 45.74 88.69 48.29C90.19 50.84 91.58 53.56 92.82 56.17L92.81 56.12ZM60 71C57.29 70.61 54.66 70.12 52.16 69.54C52.9 67.08 53.79 64.54 54.81 61.99C55.59 63.49 56.42 64.99 57.28 66.5C58.14 68.01 59 69.49 60 71ZM57.21 46C56.34 47.5 55.52 49 54.75 50.52C53.7033 47.94 52.7867 45.4 52 42.9C54.53 42.31 57.18 41.82 59.93 41.44C59 42.92 58.11 44.45 57.21 46ZM75.09 82.85C73.29 80.93 71.52 78.85 69.78 76.62C71.5 76.7 73.25 76.74 75.02 76.74C76.79 76.74 78.6 76.74 80.35 76.63C78.63 78.85 76.87 80.93 75.09 82.85ZM97.27 94.85C96.5113 95.2657 95.6547 95.4695 94.79 95.44C92.97 95.44 87.79 94.64 79.63 87.34L78.46 86.27C81.3924 83.1185 84.1149 79.778 86.61 76.27C90.8708 75.8634 95.1001 75.1752 99.27 74.21C99.71 76.15 100.06 78.05 100.27 79.88C101.27 87.42 100.12 93.18 97.27 94.81V94.85ZM102.55 44.19C104.429 44.7636 106.278 45.4311 108.09 46.19C115.18 49.19 119.59 53.04 119.58 56.33C119.57 59.62 115.17 63.49 108.07 66.44C106.36 67.14 104.55 67.79 102.63 68.37C101.375 64.2274 99.8483 60.1719 98.06 56.23C99.8198 52.3061 101.32 48.2707 102.55 44.15V44.19ZM79.55 25.1C87.74 17.77 92.86 16.98 94.68 16.98C95.5241 16.9529 96.3599 17.1532 97.1 17.56C99.96 19.19 101.1 24.94 100.19 32.56C99.9569 34.506 99.6231 36.4386 99.19 38.35C95.0462 37.3868 90.8439 36.6954 86.61 36.28C84.0887 32.7419 81.336 29.3746 78.37 26.2C78.75 25.79 79.15 25.42 79.56 25.06L79.55 25.1ZM75 29.56C76.8 31.48 78.57 33.56 80.3 35.79C78.59 35.72 76.84 35.67 75.07 35.67C73.3 35.67 71.49 35.67 69.74 35.79C71.45 33.57 73.2 31.48 75 29.56ZM52.82 17.56C53.5787 17.1565 54.4315 16.9632 55.29 17C57.0917 17.0751 58.8585 17.5211 60.48 18.31C64.1447 20.0378 67.5184 22.3252 70.48 25.09L71.65 26.16C68.7143 29.3113 65.9884 32.6518 63.49 36.16C59.2332 36.5724 55.0077 37.2605 50.84 38.22C50.4 36.28 50.04 34.38 49.84 32.55C48.8 25 50 19.24 52.81 17.6L52.82 17.56ZM42 46.05C43.7798 45.3128 45.5954 44.6653 47.44 44.11C48.6901 48.253 50.2135 52.3085 52 56.25C50.2451 60.1486 48.7453 64.157 47.51 68.25C45.6311 67.6764 43.7821 67.0089 41.97 66.25C34.87 63.25 30.47 59.4 30.47 56.11C30.47 52.82 34.91 49 42 46.05ZM75 47.05C73.1844 47.048 71.4089 47.5845 69.8982 48.5916C68.3875 49.5986 67.2093 51.0311 66.5126 52.7077C65.816 54.3844 65.6322 56.23 65.9845 58.0111C66.3367 59.7923 67.2093 61.4289 68.4917 62.7142C69.7742 63.9994 71.4089 64.8755 73.1893 65.2317C74.9696 65.5878 76.8156 65.408 78.4938 64.715C80.172 64.0221 81.607 62.847 82.6173 61.3385C83.6277 59.8299 84.168 58.0556 84.17 56.24C84.1793 55.0299 83.9489 53.8299 83.4922 52.7093C83.0355 51.5886 82.3615 50.5695 81.5091 49.7105C80.6566 48.8516 79.6426 48.1699 78.5255 47.7047C77.4083 47.2395 76.2101 47 75 47V47.05ZM75 47.05C73.1844 47.048 71.4089 47.5845 69.8982 48.5916C68.3875 49.5986 67.2093 51.0311 66.5126 52.7077C65.816 54.3844 65.6322 56.23 65.9845 58.0111C66.3367 59.7923 67.2093 61.4289 68.4917 62.7142C69.7742 63.9994 71.4089 64.8755 73.1893 65.2317C74.9696 65.5878 76.8156 65.408 78.4938 64.715C80.172 64.0221 81.607 62.847 82.6173 61.3385C83.6277 59.8299 84.168 58.0556 84.17 56.24C84.1793 55.0299 83.9489 53.8299 83.4922 52.7093C83.0355 51.5886 82.3615 50.5695 81.5091 49.7105C80.6566 48.8516 79.6426 48.1699 78.5255 47.7047C77.4083 47.2395 76.2101 47 75 47V47.05ZM75 47.05C73.1844 47.048 71.4089 47.5845 69.8982 48.5916C68.3875 49.5986 67.2093 51.0311 66.5126 52.7077C65.816 54.3844 65.6322 56.23 65.9845 58.0111C66.3367 59.7923 67.2093 61.4289 68.4917 62.7142C69.7742 63.9994 71.4089 64.8755 73.1893 65.2317C74.9696 65.5878 76.8156 65.408 78.4938 64.715C80.172 64.0221 81.607 62.847 82.6173 61.3385C83.6277 59.8299 84.168 58.0556 84.17 56.24C84.1793 55.0299 83.9489 53.8299 83.4922 52.7093C83.0355 51.5886 82.3615 50.5695 81.5091 49.7105C80.6566 48.8516 79.6426 48.1699 78.5255 47.7047C77.4083 47.2395 76.2101 47 75 47V47.05ZM124.35 56.29C124.35 49.4 116.24 43.29 103.77 39.56C106.77 26.89 105.46 16.81 99.49 13.4C98.0262 12.587 96.3743 12.1732 94.7 12.2C89.13 12.2 82.09 16.09 74.98 22.82C67.87 16.14 60.85 12.27 55.29 12.27C53.5898 12.2324 51.9109 12.6539 50.43 13.49C44.49 16.91 43.26 26.93 46.22 39.54C33.81 43.25 25.74 49.31 25.72 56.17C25.7 63.03 33.84 69.17 46.31 72.89C43.31 85.57 44.61 95.64 50.59 99.05C52.0484 99.8676 53.6984 100.282 55.37 100.25C60.95 100.25 67.99 96.36 75.1 89.63C82.2 96.31 89.22 100.18 94.79 100.18C96.4895 100.211 98.1668 99.7902 99.65 98.96C105.59 95.54 106.81 85.52 103.86 72.96C116.27 69.18 124.34 63.12 124.35 56.27V56.29ZM79.56 25.06C87.75 17.73 92.87 16.94 94.69 16.94C95.5341 16.9129 96.3699 17.1132 97.11 17.52C99.97 19.15 101.11 24.9 100.2 32.52C99.9669 34.466 99.6331 36.3986 99.2 38.31C95.0562 37.3468 90.8539 36.6554 86.62 36.24C84.0987 32.7019 81.346 29.3346 78.38 26.16C78.75 25.79 79.15 25.42 79.56 25.06ZM54.77 61.94C55.55 63.44 56.38 64.94 57.24 66.45C58.1 67.96 59 69.49 60 71C57.29 70.61 54.66 70.12 52.16 69.54C52.86 67 53.75 64.5 54.77 61.94ZM52 42.9C54.53 42.31 57.18 41.82 59.93 41.44C58.93 42.92 58.07 44.44 57.17 46.03C56.27 47.62 55.48 49.03 54.71 50.55C53.69 47.95 52.7867 45.4 52 42.9ZM57.21 56.24C58.45 53.62 59.8134 51 61.3 48.38C62.8 45.76 64.41 43.21 66.07 40.77C68.98 40.55 71.98 40.43 75.07 40.44C78.16 40.45 81.07 40.56 83.96 40.79C85.62 43.21 87.21 45.79 88.71 48.34C90.21 50.89 91.59 53.56 92.83 56.17C91.6 58.79 90.23 61.42 88.75 64.02C87.27 66.62 85.64 69.2 83.98 71.64C81.07 71.87 78.07 71.98 74.98 71.98C71.89 71.98 68.98 71.85 66.09 71.62C64.43 69.2 62.83 66.68 61.33 64.07C59.83 61.46 58.5 58.85 57.25 56.24H57.21ZM90.07 41.47C92.79 41.85 95.42 42.34 97.91 42.92C97.17 45.39 96.29 47.92 95.27 50.47C94.48 48.97 93.66 47.47 92.79 45.96C91.92 44.45 91 42.93 90.11 41.47H90.07ZM92.83 66.39C93.69 64.8767 94.51 63.3667 95.29 61.86C96.29 64.46 97.29 67.02 97.99 69.52C95.47 70.11 92.82 70.59 90.07 70.97C91.0367 69.49 91.97 67.9633 92.87 66.39H92.83ZM75 29.56C76.8 31.48 78.57 33.56 80.3 35.79C78.59 35.72 76.84 35.67 75.07 35.67C73.3 35.67 71.49 35.67 69.74 35.79C71.45 33.57 73.2 31.48 75 29.56ZM52.82 17.56C53.5787 17.1565 54.4315 16.9632 55.29 17C57.0917 17.0751 58.8585 17.5211 60.48 18.31C64.1447 20.0378 67.5184 22.3252 70.48 25.09L71.65 26.16C68.7143 29.3113 65.9884 32.6518 63.49 36.16C59.2332 36.5724 55.0077 37.2605 50.84 38.22C50.4 36.28 50.04 34.38 49.84 32.55C48.8 25 50 19.24 52.81 17.6L52.82 17.56ZM47.53 68.26C45.6511 67.6864 43.8021 67.0189 41.99 66.26C34.89 63.26 30.49 59.41 30.49 56.12C30.49 52.83 34.91 49 42 46.05C43.7798 45.3128 45.5954 44.6653 47.44 44.11C48.6901 48.253 50.2135 52.3085 52 56.25C50.2515 60.1523 48.7583 64.1641 47.53 68.26ZM70.53 87.36C62.34 94.69 57.22 95.47 55.39 95.47C54.5458 95.4981 53.7097 95.2977 52.97 94.89C50.11 93.26 48.97 87.51 49.88 79.89C50.1123 77.9472 50.4461 76.0179 50.88 74.11C55.025 75.0648 59.227 75.7529 63.46 76.17C65.9782 79.7104 68.7311 83.078 71.7 86.25L70.53 87.36ZM75.1 82.85C73.3 80.93 71.53 78.85 69.79 76.62C71.51 76.7 73.26 76.74 75.03 76.74C76.8 76.74 78.61 76.74 80.36 76.63C78.63 78.85 76.87 80.93 75.09 82.85H75.1ZM97.28 94.85C96.5213 95.2657 95.6647 95.4695 94.8 95.44C92.98 95.44 87.8 94.64 79.64 87.34L78.47 86.27C81.4024 83.1185 84.1249 79.778 86.62 76.27C90.8808 75.8634 95.1101 75.1752 99.28 74.21C99.72 76.15 100.07 78.05 100.28 79.88C101.27 87.42 100.12 93.18 97.27 94.81L97.28 94.85ZM108.08 66.41C106.37 67.11 104.56 67.76 102.64 68.34C101.385 64.1974 99.8583 60.1419 98.07 56.2C99.8266 52.3021 101.326 48.2936 102.56 44.2C104.439 44.7736 106.288 45.4411 108.1 46.2C115.19 49.2 119.6 53.05 119.59 56.34C119.58 59.63 115.17 63.42 108.07 66.37L108.08 66.41ZM75 65.39C76.8156 65.392 78.5911 64.8555 80.1018 63.8484C81.6126 62.8414 82.7908 61.409 83.4874 59.7323C84.184 58.0556 84.3678 56.21 84.0156 54.4289C83.6633 52.6478 82.7908 51.0111 81.5083 49.7258C80.2259 48.4406 78.5911 47.5645 76.8107 47.2084C75.0304 46.8522 73.1844 47.032 71.5062 47.725C69.828 48.418 68.393 49.593 67.3827 51.1016C66.3723 52.6101 65.832 54.3844 65.83 56.2C65.8274 57.4059 66.0626 58.6005 66.5223 59.7154C66.982 60.8302 67.657 61.8435 68.5088 62.6971C69.3605 63.5507 70.3723 64.228 71.4862 64.6901C72.6 65.1522 73.7941 65.39 75 65.39ZM5.68002 119.89V9.20001L0.890015 14V124.66H122.94L127.72 119.89H5.68002Z" fill="#09D3AC"/>
</svg>
